<svg width="49" height="52" viewBox="0 0 49 52" fill="none" xmlns="http://www.w3.org/2000/svg">
<path d="M25.113 24.3111L26.3421 22.5544L32.2841 14.0665C32.9194 13.1607 33.5518 12.2539 34.1816 11.3463C34.2285 11.2724 34.2946 11.2127 34.3724 11.1735C34.4506 11.1343 34.5379 11.1171 34.6249 11.1238C39.2735 11.1238 43.9221 11.1238 48.5708 11.1238C48.8787 11.1238 48.9726 11.2154 48.9726 11.5243C48.9726 14.4915 48.9726 17.4491 48.9726 20.3971C48.9726 20.7086 48.8864 20.7872 48.5682 20.7872H45.9583V42.3369C46.0395 42.3369 46.1228 42.3369 46.2197 42.3369H48.5968C48.897 42.3369 48.9884 42.4257 48.9884 42.7241V51.597C48.9884 51.9163 48.9047 52 48.5917 52H36.5015C36.1517 52 36.0761 51.9189 36.0761 51.5603C36.0761 48.2598 36.0761 44.9566 36.0761 41.6509V41.452H35.828C32.7245 41.452 29.6207 41.452 26.5172 41.452C26.373 41.4626 26.2284 41.4329 26.0999 41.3665C25.9714 41.3001 25.8639 41.1991 25.789 41.0747C25.4969 40.6273 25.1783 40.1979 24.8572 39.745C24.5023 40.2475 24.1632 40.7293 23.8134 41.2109L18.6439 48.6018C17.9002 49.6647 17.1539 50.7224 16.4127 51.7857C16.371 51.8547 16.3113 51.9108 16.24 51.9483C16.1687 51.9853 16.0885 52.0026 16.0082 51.9974H6.3893C6.24576 51.9974 6.10486 51.9974 6.01872 51.8459C5.93262 51.6939 6.01872 51.5838 6.0944 51.4532L12.4357 42.4154L19.4816 32.3618C19.5103 32.3225 19.5338 32.2832 19.5677 32.2309L13.3621 23.4131H13.3152C13.3152 23.4733 13.3152 23.5336 13.3152 23.5938V38.564C13.3152 39.3182 13.3152 40.0731 13.3152 40.8288C13.3255 40.9158 13.3159 41.0039 13.287 41.0864C13.2581 41.169 13.2107 41.2443 13.1485 41.3056C13.0863 41.3668 13.0108 41.4131 12.928 41.441C12.8451 41.4685 12.7571 41.4766 12.6706 41.4648H0.66647C0.578497 41.4784 0.488579 41.4714 0.403762 41.4443C0.318945 41.4171 0.24154 41.3709 0.17757 41.3089C0.113636 41.2465 0.064896 41.1705 0.0351678 41.0864C0.00543958 41.002 -0.00446849 40.9121 0.00624834 40.8237C0.00624834 37.762 0.00624834 34.7024 0.00624834 31.6444C-0.00523922 31.5556 0.00397263 31.4653 0.0331503 31.3807C0.062328 31.2961 0.1107 31.2194 0.17445 31.1568C0.238201 31.0941 0.315605 31.0471 0.400532 31.0195C0.485423 30.9919 0.575598 30.9845 0.663865 30.9978H2.87678V10.4745H0.687353C0.212399 10.4745 0.00624834 10.2703 0.00624834 9.79377C0.00624834 6.75504 0.00624834 3.71626 0.00624834 0.677534C-0.0071844 0.585706 0.00110943 0.492 0.0304706 0.403986C0.0597951 0.31597 0.109378 0.236117 0.175184 0.170875C0.240953 0.105632 0.321146 0.0568314 0.409193 0.0284164C0.497276 1.35083e-06 0.590756 -0.00723436 0.682142 0.00729935H12.6027C13.0725 0.00729935 13.2917 0.219365 13.2917 0.685388V18.0905C13.3367 18.0456 13.3793 17.9984 13.4195 17.9491L19.3172 9.50577C21.4571 6.44784 23.595 3.38902 25.7314 0.329329C25.8004 0.22434 25.8955 0.139176 26.007 0.0822439C26.1186 0.0253112 26.243 -0.00141975 26.3682 0.00468667H35.8831C36.0016 -0.00935156 36.1216 0.0125735 36.2277 0.0676385C36.3337 0.122703 36.4207 0.208381 36.478 0.313621C36.5316 0.423816 36.5518 0.547552 36.5356 0.669184C36.5191 0.790813 36.4673 0.90487 36.3866 0.996943L30.0974 9.99012L23.182 19.8839C23.0124 20.1274 22.8323 20.3683 22.6732 20.6196C22.654 20.6536 22.6426 20.6914 22.6399 20.7304C22.6372 20.7694 22.6432 20.8084 22.6575 20.8448C23.4475 21.9897 24.2432 23.1304 25.0451 24.2666C25.0664 24.2837 25.0891 24.2986 25.113 24.3111ZM36.0735 23.7875C36.0133 23.8582 35.9741 23.8975 35.9429 23.942C34.1195 26.5479 32.2929 29.1529 30.4626 31.757C30.4307 31.793 30.4131 31.8396 30.4131 31.8879C30.4131 31.9362 30.4307 31.9828 30.4626 32.0188C32.2999 34.6369 34.1346 37.2611 35.9664 39.8914C35.9854 39.9263 36.0001 39.963 36.0108 40.0016L36.0655 39.9542L36.0735 23.7875Z" fill="white"/>
</svg>
