<svg width="40" height="40" viewBox="0 0 40 40" fill="none" xmlns="http://www.w3.org/2000/svg">
<path d="M33.125 35C29.7361 35 26.3681 34.1667 23.0208 32.5C19.6736 30.8333 16.6667 28.6667 14 26C11.3333 23.3333 9.16667 20.3264 7.5 16.9792C5.83333 13.6319 5 10.2639 5 6.875C5 6.34722 5.18056 5.90278 5.54167 5.54167C5.90278 5.18056 6.34722 5 6.875 5H12.7083C13.0972 5 13.4375 5.13194 13.7292 5.39583C14.0208 5.65972 14.2083 6.01389 14.2917 6.45833L15.4167 11.7083C15.4722 12.0972 15.4653 12.4514 15.3958 12.7708C15.3264 13.0903 15.1806 13.3611 14.9583 13.5833L10.7917 17.7917C12.3472 20.375 14.0903 22.625 16.0208 24.5417C17.9514 26.4583 20.1389 28.0833 22.5833 29.4167L26.5417 25.3333C26.8194 25.0278 27.1389 24.8125 27.5 24.6875C27.8611 24.5625 28.2222 24.5417 28.5833 24.625L33.5417 25.7083C33.9583 25.7917 34.3056 26 34.5833 26.3333C34.8611 26.6667 35 27.0556 35 27.5V33.125C35 33.6528 34.8194 34.0972 34.4583 34.4583C34.0972 34.8194 33.6528 35 33.125 35ZM9.54167 15.5L12.9167 12.0833L11.9583 7.5H7.5C7.5 8.58333 7.66667 9.77083 8 11.0625C8.33333 12.3542 8.84722 13.8333 9.54167 15.5ZM24.9167 30.625C26.0556 31.1528 27.2917 31.5833 28.625 31.9167C29.9583 32.25 31.25 32.4444 32.5 32.5V28.0417L28.2083 27.1667L24.9167 30.625Z" fill="#5EFFA8"/>
</svg>
