<svg width="26" height="26" viewBox="0 0 26 26" fill="none" xmlns="http://www.w3.org/2000/svg">
<g clip-path="url(#clip0_35_1380)">
<rect width="26" height="26" rx="5" fill="#1E3122"/>
<path d="M7.06876 22.75C6.61737 22.75 6.23369 22.592 5.91772 22.276C5.60175 21.9601 5.44376 21.5764 5.44376 21.125V5.6875H4.33334V4.0625H9.42501V3.25H16.575V4.0625H21.6667V5.6875H20.5563V21.125C20.5563 21.5583 20.3938 21.9375 20.0688 22.2625C19.7438 22.5875 19.3646 22.75 18.9313 22.75H7.06876ZM18.9313 5.6875H7.06876V21.125H18.9313V5.6875ZM9.93959 18.7958H11.5646V7.98958H9.93959V18.7958ZM14.4354 18.7958H16.0604V7.98958H14.4354V18.7958ZM7.06876 5.6875V21.125V5.6875Z" fill="#1E3122"/>
<path d="M7.06876 22.75C6.61737 22.75 6.23369 22.592 5.91772 22.276C5.60175 21.9601 5.44376 21.5764 5.44376 21.125V5.6875H4.33334V4.0625H9.42501V3.25H16.575V4.0625H21.6667V5.6875H20.5563V21.125C20.5563 21.5583 20.3938 21.9375 20.0688 22.2625C19.7438 22.5875 19.3646 22.75 18.9313 22.75H7.06876ZM18.9313 5.6875H7.06876V21.125H18.9313V5.6875ZM9.93959 18.7958H11.5646V7.98958H9.93959V18.7958ZM14.4354 18.7958H16.0604V7.98958H14.4354V18.7958ZM7.06876 5.6875V21.125V5.6875Z" fill="#FF0000"/>
<rect width="26" height="26" rx="5" fill="#1E3122"/>
<path d="M7.06876 22.75C6.61737 22.75 6.23369 22.592 5.91772 22.276C5.60175 21.9601 5.44376 21.5764 5.44376 21.125V5.6875H4.33334V4.0625H9.42501V3.25H16.575V4.0625H21.6667V5.6875H20.5563V21.125C20.5563 21.5583 20.3938 21.9375 20.0688 22.2625C19.7438 22.5875 19.3646 22.75 18.9313 22.75H7.06876ZM18.9313 5.6875H7.06876V21.125H18.9313V5.6875ZM9.93959 18.7958H11.5646V7.98958H9.93959V18.7958ZM14.4354 18.7958H16.0604V7.98958H14.4354V18.7958ZM7.06876 5.6875V21.125V5.6875Z" fill="#1E3122"/>
<path d="M7.06876 22.75C6.61737 22.75 6.23369 22.592 5.91772 22.276C5.60175 21.9601 5.44376 21.5764 5.44376 21.125V5.6875H4.33334V4.0625H9.42501V3.25H16.575V4.0625H21.6667V5.6875H20.5563V21.125C20.5563 21.5583 20.3938 21.9375 20.0688 22.2625C19.7438 22.5875 19.3646 22.75 18.9313 22.75H7.06876ZM18.9313 5.6875H7.06876V21.125H18.9313V5.6875ZM9.93959 18.7958H11.5646V7.98958H9.93959V18.7958ZM14.4354 18.7958H16.0604V7.98958H14.4354V18.7958ZM7.06876 5.6875V21.125V5.6875Z" fill="#FF0000"/>
</g>
<defs>
<clipPath id="clip0_35_1380">
<rect width="26" height="26" rx="5" fill="white"/>
</clipPath>
</defs>
</svg>
