<svg width="353" height="38" viewBox="0 0 353 38" fill="none" xmlns="http://www.w3.org/2000/svg">
<path d="M9.70583 30.212C11.8178 30.2035 13.6042 29.7884 15.0649 28.9665C16.5496 28.1445 17.7207 26.9158 18.5781 25.2804L13.7134 24.1119C13.3083 24.8335 12.7584 25.3757 12.0639 25.7385C11.3933 26.1012 10.5781 26.2845 9.61809 26.2883C8.77809 26.2917 8.06938 26.1146 7.49194 25.7569C6.9144 25.3752 6.48019 24.8249 6.1893 24.1061C5.89842 23.3872 5.75095 22.5238 5.74691 21.5158C5.76648 20.4117 5.90682 19.4992 6.16793 18.7781C6.45294 18.033 6.87072 17.4793 7.42127 17.1171C7.97182 16.7549 8.6551 16.5721 9.47109 16.5688C10.1191 16.5662 10.6837 16.708 11.1648 16.9941C11.646 17.2801 12.0196 17.6866 12.2857 18.2136C12.5518 18.7405 12.6863 19.364 12.6892 20.084C12.6899 20.252 12.6428 20.4682 12.5478 20.7325C12.4768 20.9728 12.3816 21.1772 12.2623 21.3457L13.5516 19.6845L3.3277 19.7255L3.33984 22.7495L18.4597 22.6888C18.507 22.5206 18.5302 22.3166 18.5293 22.0766C18.5282 21.8126 18.5271 21.5486 18.5261 21.2846C18.519 19.5086 18.1649 17.998 17.4639 16.7528C16.7629 15.5076 15.7511 14.5636 14.4285 13.9209C13.1058 13.2542 11.4845 12.9247 9.5645 12.9324C7.64452 12.9401 5.97793 13.2948 4.56473 13.9965C3.17553 14.6981 2.11154 15.6984 1.37274 16.9973C0.633949 18.2963 0.268114 19.8338 0.27524 21.6098C0.282269 23.3618 0.67238 24.8842 1.44557 26.1771C2.21877 27.47 3.3028 28.4737 4.69768 29.1881C6.11646 29.8784 7.78584 30.2197 9.70583 30.212ZM27.5904 17.1802C27.5841 15.6202 27.9268 14.2868 28.6184 13.18C29.3099 12.0732 30.2186 11.2296 31.3442 10.649C32.4939 10.0684 33.7527 9.77538 35.1207 9.76989C36.3207 9.76507 37.3773 9.91684 38.2906 10.2252C39.2037 10.5095 40.0214 10.9142 40.7435 11.4393C41.4655 11.9405 42.1037 12.4779 42.658 13.0517L42.6317 6.49973C41.6205 5.71178 40.514 5.09221 39.3122 4.64103C38.1104 4.18985 36.5855 3.96796 34.7375 3.97538C32.7215 3.98347 30.8628 4.30293 29.1613 4.93376C27.4598 5.56459 25.9994 6.47046 24.7802 7.65136C23.5609 8.83226 22.6185 10.2281 21.9529 11.8387C21.2874 13.4494 20.9586 15.2388 20.9665 17.2067C20.9744 19.1747 21.3175 20.9614 21.996 22.5666C22.6744 24.1719 23.628 25.5601 24.8567 26.7312C26.0854 27.9023 27.553 28.7964 29.2595 29.4136C30.966 30.0307 32.8272 30.3353 34.8432 30.3272C36.6912 30.3198 38.2143 30.0856 39.4124 29.6248C40.6106 29.164 41.7121 28.5356 42.7169 27.7396L42.6906 21.1876C42.1409 21.7658 41.5071 22.3084 40.7891 22.8153C40.0711 23.3221 39.2568 23.7334 38.3461 24.0491C37.4353 24.3647 36.3799 24.525 35.18 24.5298C33.812 24.5353 32.5508 24.2523 31.3965 23.6809C30.2662 23.1095 29.3509 22.2731 28.6504 21.1719C27.9499 20.0467 27.5966 18.7161 27.5904 17.1802ZM52.6524 17.0796C52.6464 15.5916 52.9292 14.2825 53.5006 13.1522C54.096 11.9978 54.9204 11.0945 55.9738 10.4422C57.0512 9.7899 58.3099 9.46085 59.7499 9.45507C61.2138 9.4492 62.4751 9.76814 63.5337 10.4119C64.5923 11.0557 65.4119 11.9524 65.9925 13.1021C66.5731 14.2277 66.8663 15.5346 66.8723 17.0226C66.8782 18.5105 66.5835 19.8317 65.9882 20.9861C65.4167 22.1164 64.5923 23.0078 63.5149 23.6601C62.4615 24.3123 61.2268 24.6413 59.8108 24.647C58.3708 24.6527 57.1095 24.3338 56.0269 23.6901C54.9684 23.0464 54.1368 22.1617 53.5323 21.0361C52.9517 19.8864 52.6584 18.5676 52.6524 17.0796ZM46.2084 17.1055C46.2162 19.0494 46.5474 20.8361 47.202 22.4655C47.8805 24.0948 48.8222 25.507 50.027 26.7022C51.2558 27.8973 52.6995 28.8275 54.3582 29.4929C56.0168 30.1342 57.8421 30.4509 59.8341 30.4429C61.802 30.435 63.6127 30.1037 65.2661 29.4491C66.9194 28.7705 68.3436 27.8287 69.5388 26.6239C70.758 25.419 71.6883 23.9993 72.3298 22.3647C72.9952 20.73 73.324 18.9407 73.3162 16.9967C73.3084 15.0527 72.9653 13.2781 72.2869 11.6728C71.6084 10.0675 70.6548 8.67932 69.4261 7.50824C68.1974 6.33716 66.7538 5.44294 65.0953 4.82559C63.4607 4.18414 61.6715 3.86732 59.7275 3.87512C57.8075 3.88282 56.0208 4.21399 54.3674 4.86863C52.7139 5.49927 51.2776 6.40504 50.0583 7.58594C48.839 8.76684 47.8846 10.1627 47.1951 11.7735C46.5295 13.3841 46.2006 15.1615 46.2084 17.1055ZM83.6935 16.7031L90.6117 27.1874L97.4814 16.6478L99.045 29.4936L105.453 29.4679L101.279 3.02441L90.5766 18.4395L79.787 3.11063L75.8252 29.5867L82.2331 29.561L83.6935 16.7031ZM109.226 4.25253L109.327 29.4523L115.411 29.4279L115.31 4.22812L109.226 4.25253ZM113.062 9.24118L117.994 9.22139C119.218 9.21648 120.179 9.48863 120.878 10.0378C121.576 10.587 121.927 11.3896 121.931 12.4456C121.935 13.4776 121.591 14.271 120.897 14.8258C120.203 15.3806 119.244 15.6604 118.02 15.6653L113.088 15.6851L113.108 20.6891L118.04 20.6693C120.176 20.6607 121.963 20.3296 123.4 19.6758C124.862 18.9979 125.962 18.0455 126.701 16.8185C127.44 15.5676 127.806 14.1021 127.799 12.4221C127.792 10.6941 127.414 9.2196 126.665 7.9986C125.917 6.77759 124.809 5.84603 123.342 5.20391C121.9 4.53769 120.11 4.20886 117.974 4.21743L113.042 4.23722L113.062 9.24118ZM133.166 24.4966L146.486 24.4432L146.071 19.8008L133.58 19.851L133.166 24.4966ZM139.71 13.3823L143.306 21.5399L143.097 23.0888L146.146 29.3046L153.057 29.2769L139.666 2.54639L126.526 29.3833L133.402 29.3557L136.508 22.8632L136.214 21.5324L139.71 13.3823ZM172.985 3.99673L173.042 18.1806L155.592 2.8065L155.698 29.2663L161.53 29.2429L161.473 15.059L178.959 30.433L178.853 3.97319L172.985 3.99673ZM198.327 3.89506L193.433 13.3828L188.463 3.93463L181.479 3.96265L190.359 18.9031L190.4 29.1271L196.592 29.1022L196.551 18.8423L205.311 3.86704L198.327 3.89506ZM222.79 9.01695L234.058 8.97175L234.037 3.75179L222.769 3.79699L222.79 9.01695ZM222.83 18.8809L233.738 18.8371L233.718 13.9411L222.81 13.9849L222.83 18.8809ZM218.737 3.81317L218.838 29.013L224.67 28.9896L224.569 3.78977L218.737 3.81317ZM242.791 12.3567L237.427 12.3783L237.493 28.9381L242.857 28.9166L242.791 12.3567ZM247.601 17.9535L249.923 13.3001C249.633 12.8693 249.212 12.535 248.659 12.2972C248.106 12.0594 247.529 11.9417 246.929 11.9441C246.017 11.9478 245.143 12.2513 244.305 12.8547C243.467 13.458 242.787 14.2768 242.263 15.3109C241.763 16.3449 241.516 17.5219 241.521 18.8419L242.825 20.7447C242.821 19.9527 242.927 19.2802 243.14 18.7274C243.354 18.1745 243.665 17.7533 244.071 17.4636C244.478 17.174 244.946 17.0281 245.474 17.026C245.954 17.0241 246.35 17.1065 246.663 17.2732C246.999 17.4399 247.312 17.6666 247.601 17.9535ZM251.879 6.09222C251.882 6.95622 252.197 7.66296 252.823 8.21245C253.449 8.76195 254.194 9.03496 255.058 9.03149C255.946 9.02793 256.689 8.74895 257.287 8.19454C257.909 7.64004 258.218 6.9308 258.215 6.0668C258.211 5.20281 257.896 4.50807 257.27 3.98258C256.668 3.43299 255.923 3.15997 255.035 3.16354C254.171 3.167 253.428 3.44599 252.806 4.00049C252.184 4.53099 251.875 5.22823 251.879 6.09222ZM252.444 12.318L252.51 28.8779L257.766 28.8568L257.7 12.2969L252.444 12.318ZM270.669 29.165C272.781 29.1566 274.567 28.7414 276.028 27.9195C277.512 27.0976 278.683 25.8688 279.541 24.2334L274.676 23.0649C274.271 23.7865 273.721 24.3287 273.027 24.6915C272.356 25.0542 271.541 25.2375 270.581 25.2413C269.741 25.2447 269.032 25.0676 268.455 24.7099C267.877 24.3282 267.443 23.7779 267.152 23.0591C266.861 22.3402 266.714 21.4768 266.71 20.4688C266.729 19.3648 266.87 18.4522 267.131 17.7311C267.416 16.986 267.833 16.4323 268.384 16.0701C268.935 15.7079 269.618 15.5251 270.434 15.5219C271.082 15.5193 271.646 15.661 272.128 15.9471C272.609 16.2331 272.982 16.6396 273.248 17.1666C273.515 17.6935 273.649 18.317 273.652 19.037C273.653 19.205 273.606 19.4212 273.511 19.6855C273.44 19.9258 273.344 20.1302 273.225 20.2987L274.514 18.6375L264.29 18.6785L264.303 21.7025L279.422 21.6418C279.47 21.4737 279.493 21.2696 279.492 21.0296C279.491 20.7656 279.49 20.5016 279.489 20.2376C279.482 18.4616 279.128 16.951 278.427 15.7058C277.726 14.4606 276.714 13.5166 275.391 12.8739C274.069 12.2072 272.447 11.8777 270.527 11.8855C268.607 11.8932 266.941 12.2478 265.527 12.9495C264.138 13.6511 263.074 14.6514 262.335 15.9504C261.597 17.2493 261.231 18.7868 261.238 20.5628C261.245 22.3148 261.635 23.8372 262.408 25.1301C263.182 26.423 264.266 27.4267 265.66 28.1411C267.079 28.8314 268.749 29.1727 270.669 29.165ZM293.603 18.6329L293.644 28.7128L299.296 28.6902L299.253 18.0343C299.245 16.0423 298.771 14.4962 297.83 13.3959C296.89 12.2957 295.388 11.7497 293.324 11.758C292.1 11.7629 291.069 12.019 290.231 12.5264C289.417 13.0337 288.772 13.7443 288.295 14.6582L288.285 12.1742L282.813 12.1962L282.88 28.756L288.352 28.7341L288.311 18.6542C288.309 18.0062 288.426 17.4537 288.665 16.9967C288.903 16.5398 289.237 16.1904 289.668 15.9487C290.099 15.707 290.603 15.5849 291.179 15.5826C292.043 15.5792 292.656 15.8407 293.018 16.3673C293.404 16.8937 293.599 17.6489 293.603 18.6329ZM316.038 0.542773L316.151 28.6225L321.586 28.6007L321.474 0.520963L316.038 0.542773ZM302.581 20.3969C302.589 22.2449 302.967 23.8154 303.716 25.1084C304.489 26.3773 305.477 27.3454 306.68 28.0125C307.883 28.6797 309.156 29.0106 310.5 29.0052C311.892 28.9996 313.115 28.6467 314.168 27.9465C315.245 27.2462 316.093 26.2468 316.712 24.9483C317.331 23.6498 317.636 22.1125 317.629 20.3365C317.622 18.5366 317.304 17.0018 316.675 15.7323C316.046 14.4389 315.19 13.4463 314.107 12.7546C313.048 12.0629 311.823 11.7198 310.431 11.7254C309.087 11.7308 307.816 12.0719 306.619 12.7487C305.421 13.4255 304.441 14.4014 303.678 15.6765C302.94 16.9515 302.574 18.5249 302.581 20.3969ZM308.305 20.374C308.302 19.51 308.479 18.7652 308.836 18.1398C309.194 17.4904 309.672 16.9964 310.27 16.658C310.869 16.2956 311.528 16.113 312.248 16.1101C312.872 16.1076 313.473 16.2732 314.05 16.6069C314.652 16.9405 315.146 17.4305 315.532 18.0769C315.919 18.6994 316.114 19.4546 316.117 20.3426C316.121 21.2306 315.932 21.9994 315.551 22.6489C315.169 23.2744 314.679 23.7564 314.08 24.0948C313.506 24.4331 312.906 24.6035 312.282 24.606C311.562 24.6089 310.902 24.4436 310.3 24.11C309.699 23.7524 309.217 23.2623 308.854 22.6398C308.492 21.9932 308.309 21.2379 308.305 20.374ZM325.693 0.504038L325.805 28.5838L331.277 28.5619L331.164 0.482084L325.693 0.504038ZM352.398 11.917L346.818 11.9394L341.579 25.2085L344.387 25.2332L338.97 11.9709L332.994 11.9948L340.219 27.194L336.224 36.4621L341.696 36.4401L352.398 11.917Z" fill="#5EFFA8"/>
</svg>
