<svg width="26" height="26" viewBox="0 0 26 26" fill="none" xmlns="http://www.w3.org/2000/svg">
<rect width="26" height="26" rx="5" fill="#1E3122"/>
<path d="M4.875 21.125H6.06667L18.0646 9.12712L16.8729 7.93545L4.875 19.9334V21.125ZM21.5042 7.96253L18.0375 4.49587L19.175 3.35837C19.4819 3.05142 19.8611 2.89795 20.3125 2.89795C20.7639 2.89795 21.1431 3.05142 21.45 3.35837L22.6417 4.55003C22.9486 4.85698 23.1021 5.23614 23.1021 5.68753C23.1021 6.13892 22.9486 6.51809 22.6417 6.82503L21.5042 7.96253ZM20.3667 9.10003L6.71667 22.75H3.25V19.2834L16.9 5.63337L20.3667 9.10003ZM17.4688 8.53128L16.8729 7.93545L18.0646 9.12712L17.4688 8.53128Z" fill="#5EFFA8"/>
</svg>
