<svg width="26" height="40" viewBox="0 0 26 40" fill="none" xmlns="http://www.w3.org/2000/svg">
<path d="M25.7814 17.9799L22.6564 14.8555C22.4208 14.6199 22.0375 14.6199 21.8019 14.8555C21.5657 15.0917 21.5657 15.4744 21.8019 15.71L23.8751 17.7828H15.0416V19.0328H23.8742L21.8019 21.1055C21.5657 21.3417 21.5657 21.7244 21.8019 21.96C21.9197 22.0778 22.0747 22.137 22.2291 22.137C22.3836 22.137 22.5386 22.0778 22.6564 21.96L25.7814 18.8344C25.8949 18.7209 25.9584 18.5671 25.9584 18.4071C25.9584 18.2466 25.8949 18.0935 25.7814 17.9799Z" fill="white"/>
<path d="M18.1666 24.6578C17.8212 24.6578 17.5416 24.9373 17.5416 25.2828V32.0265C17.5416 32.6784 17.0223 33.4078 16.3271 33.4078H12.5416V7.02465V6.16734L11.762 5.83371L1.79781 1.60278L1.63488 1.53278H16.3271C17.0876 1.53278 17.5416 2.1529 17.5416 2.75228V12.1578C17.5416 12.5032 17.8212 12.7828 18.1666 12.7828C18.5121 12.7828 18.7916 12.5032 18.7916 12.1578V2.75228C18.7916 1.39059 17.6863 0.282776 16.3271 0.282776H0.666626C0.340626 0.282776 0.0816887 0.534588 0.0526886 0.853026L0.041626 0.848276V0.907776V34.3963L10.7826 38.9628L12.5416 39.7172V37.7828V34.6578H16.3271C17.8011 34.6578 18.7916 33.2973 18.7916 32.0265V25.2828C18.7916 24.9373 18.5121 24.6578 18.1666 24.6578ZM11.2916 7.02465V37.7828L1.29163 33.5473V2.78278L11.2858 7.01578L11.2916 7.01821V7.02465Z" fill="white"/>
</svg>
