<svg width="37" height="37" viewBox="0 0 37 37" fill="none" xmlns="http://www.w3.org/2000/svg">
<path d="M33.1021 0H3.89792C1.745 0 0 1.75255 0 3.89792V33.1021C0 35.255 1.75255 37 3.89792 37H33.1021C35.255 37 37 35.2475 37 33.1021V3.89792C37 1.75255 35.2475 0 33.1021 0ZM35.1492 33.1021C35.1492 34.2276 34.2276 35.1492 33.1021 35.1492H3.89792C2.77236 35.1492 1.85076 34.2276 1.85076 33.1021V3.89792C1.85076 2.77236 2.77236 1.85076 3.89792 1.85076H33.1021C34.2276 1.85076 35.1492 2.77236 35.1492 3.89792V33.1021Z" fill="#5EFFA8"/>
<path d="M25.4876 17.5784H19.4216V11.5125C19.4216 10.9988 19.0062 10.5833 18.4925 10.5833C17.9788 10.5833 17.5633 10.9988 17.5633 11.5125V17.5784H11.4974C10.9837 17.5784 10.5682 17.9939 10.5682 18.5C10.5682 19.0137 10.9837 19.4292 11.4974 19.4292H17.5633V25.4951C17.5633 26.0088 17.9788 26.4243 18.4925 26.4243C19.0062 26.4243 19.4216 26.0088 19.4216 25.4951V19.4292H25.4876C26.0013 19.4292 26.4167 19.0137 26.4167 18.5C26.4167 17.9863 26.0013 17.5784 25.4876 17.5784Z" fill="#5EFFA8"/>
</svg>
