<svg width="40" height="40" viewBox="0 0 40 40" fill="none" xmlns="http://www.w3.org/2000/svg">
<g clip-path="url(#clip0_75_3)">
<path d="M14.5324 27.6073C12.2287 29.6968 8.76219 30.3896 6.86151 31.5195C3.59225 28.4718 1.49189 24.1871 1.30798 19.4104C2.45008 18.9842 3.55811 18.4595 4.18272 17.8665C5.84715 16.2836 7.14518 15.7564 8.28235 17.8665C9.41836 19.9766 9.94562 21.8444 11.9352 22.1683C13.9237 22.4934 17.5765 24.847 14.5324 27.6073Z" fill="#A2FF9A"/>
<path d="M19.7341 17.5253C19.4728 19.7375 19.6225 21.946 21.5764 23.5664C21.6045 23.5897 21.63 23.6146 21.656 23.6392C21.9521 23.2582 22.2725 22.8921 22.6201 22.5446C24.5051 20.6596 26.9362 19.5612 29.3347 18.9327C28.1484 17.5301 26.9026 12.2527 22.7162 14.3812C21.84 14.8267 21.5227 8.48186 21.7115 8.24053C23.5151 5.89446 25.0209 4.87229 27.7789 3.92621C27.8528 3.8998 27.9116 3.85839 27.9736 3.81683C25.3037 2.16998 22.1624 1.21796 18.7941 1.21796C15.0931 1.21796 11.663 2.3699 8.83411 4.33284C8.84918 4.40081 8.86957 4.47089 8.89903 4.53581C10.0924 7.10898 11.6306 11.476 14.2536 12.481C15.5262 12.9697 20.1132 14.3151 19.7341 17.5253Z" fill="#A2FF9A"/>
<path d="M22.7793 24.1843C22.8755 24.0666 22.9741 23.9504 23.0757 23.8364C23.0979 23.8114 23.1205 23.7871 23.1429 23.7625C23.2528 23.6415 23.3648 23.5219 23.481 23.4055C23.5689 23.3176 23.6591 23.2313 23.7509 23.1461C23.7789 23.12 23.8076 23.095 23.8358 23.0693C23.9008 23.0103 23.9664 22.9516 24.0334 22.8939C24.0665 22.8653 24.1001 22.8371 24.1334 22.809C24.1987 22.7541 24.2648 22.6998 24.3318 22.646C24.3647 22.6194 24.3978 22.5928 24.4311 22.5668C24.5068 22.5075 24.5838 22.4493 24.6616 22.3916C24.6862 22.3733 24.7106 22.3546 24.7353 22.3366C24.838 22.2617 24.9424 22.1882 25.0488 22.1161C25.0706 22.1012 25.0929 22.0872 25.1148 22.0725C25.1989 22.0162 25.284 21.9607 25.3703 21.9061C25.4087 21.8818 25.4475 21.858 25.4862 21.8342C25.5584 21.7897 25.6314 21.7457 25.7053 21.7023C25.7473 21.6776 25.7893 21.6528 25.8317 21.6286C25.913 21.5819 25.9957 21.5363 26.0789 21.491C26.1333 21.4614 26.1877 21.4322 26.2424 21.4034C26.3257 21.3596 26.4096 21.3162 26.4948 21.2737C26.5539 21.2443 26.6134 21.2155 26.6729 21.1869C26.7279 21.1604 26.7834 21.1342 26.8391 21.1083C26.9063 21.0769 26.9736 21.0458 27.0414 21.0156C27.0806 20.9981 27.1204 20.9811 27.1598 20.964C27.3144 20.8966 27.4698 20.8316 27.6263 20.7695C27.645 20.7621 27.6636 20.7544 27.6825 20.747C27.7771 20.7099 27.8721 20.6737 27.9672 20.6385C27.9767 20.635 27.9863 20.6315 27.9958 20.628C32.9224 18.8139 38.4655 19.4847 38.5504 19.4955C39.2165 19.5816 39.8273 19.1116 39.9139 18.445C40.0007 17.7781 39.5303 17.1673 38.8634 17.0806C38.771 17.0685 38.2504 17.0042 37.4301 16.9605C36.8858 11.1288 33.6492 5.88836 28.6132 2.78042C28.6108 2.77894 28.6084 2.77753 28.6062 2.77605C28.5961 2.76988 28.5845 2.763 28.5719 2.75558C28.5028 2.71246 28.4326 2.6705 28.3593 2.62691C28.3443 2.61753 28.3288 2.60816 28.3118 2.59816C28.3081 2.59597 28.3045 2.59378 28.3009 2.59168C28.2256 2.54785 28.1502 2.50386 28.0709 2.45832C27.98 2.40629 27.8889 2.35558 27.796 2.30457C27.7156 2.26035 27.6351 2.21715 27.5545 2.17402C27.5386 2.16488 27.5223 2.15613 27.506 2.14762L27.4379 2.11254C27.3713 2.07817 27.3052 2.0441 27.2383 2.01059C26.9643 1.87004 26.6741 1.73223 26.3812 1.60356C26.285 1.56067 26.1888 1.51903 26.0914 1.47739C26.0906 1.477 26.0897 1.47669 26.0889 1.4763C26.0858 1.47497 26.0827 1.47364 26.0796 1.47231C25.4848 1.22091 24.8819 1.00146 24.2908 0.821227C24.1898 0.790212 24.0876 0.760368 23.9867 0.730916C23.8104 0.679432 23.6381 0.632323 23.4744 0.590995C23.4265 0.578183 23.3783 0.566386 23.3273 0.553886C23.2346 0.53084 23.142 0.508809 23.051 0.487403C22.9435 0.461934 22.8346 0.437716 22.7299 0.415685L22.7079 0.410919C22.6218 0.392404 22.5366 0.374279 22.4504 0.358186L22.283 0.325061C22.1709 0.303655 22.0572 0.283655 21.9541 0.266624C21.7749 0.235609 21.5956 0.208187 21.4163 0.182094C21.4118 0.181469 21.4072 0.180766 21.4027 0.180141L21.372 0.176C21.2863 0.164516 21.2015 0.153266 21.1174 0.143032C21.0034 0.129126 20.8897 0.11647 20.7756 0.103735C20.7702 0.10311 20.7649 0.102642 20.7595 0.102017L20.565 0.0831106C20.3376 0.0621734 20.1297 0.0460798 19.9393 0.0346737C19.8766 0.0303768 19.8138 0.02733 19.745 0.0243613C19.6709 0.0206895 19.5965 0.0171739 19.5214 0.0145958C19.5102 0.0139708 19.4992 0.0139708 19.4882 0.013502C19.4571 0.0124083 19.4261 0.0114708 19.395 0.010299C19.3562 0.00904897 19.3171 0.00701774 19.2784 0.00639275C19.2718 0.0062365 19.2653 0.0062365 19.2586 0.0062365C19.1921 0.00381465 19.1254 0.00256467 19.0661 0.00256467C18.9916 0.00147093 18.9165 0.00100218 18.8414 0.000767812C18.8256 0.000767812 18.8098 -9.15527e-05 18.7939 -9.15527e-05C18.783 -9.15527e-05 18.7722 0.00053344 18.7611 0.00053344C18.6518 0.000689688 18.5442 0.00162718 18.4421 0.0039709C18.375 0.00506464 18.3091 0.00834585 18.2425 0.010299C18.1591 0.0127208 18.0756 0.0146739 17.9923 0.0181895C17.9818 0.0186582 17.9711 0.0186582 17.9607 0.019127C17.8704 0.0219394 17.78 0.0271738 17.6891 0.0324862C17.5905 0.0383455 17.4922 0.0451423 17.3946 0.0519391C17.3794 0.0530328 17.3641 0.0539703 17.349 0.0552203C17.3447 0.0556109 17.3404 0.0558453 17.3363 0.056314C17.3298 0.0567828 17.3235 0.0572515 17.3169 0.0578765C17.2147 0.0654546 17.1137 0.0749076 17.0115 0.0846731C16.9849 0.0867043 16.9582 0.0892043 16.9318 0.0922511C16.8553 0.0994385 16.7787 0.107798 16.7023 0.11647C16.6748 0.119516 16.6475 0.122563 16.6202 0.125688C16.6076 0.127173 16.5956 0.128501 16.582 0.130298C16.369 0.15475 16.1723 0.181078 15.9823 0.210453C15.9627 0.213343 15.9429 0.216547 15.9232 0.219593L15.9258 0.219125C15.9068 0.221781 15.8877 0.22475 15.8691 0.227875C15.7076 0.253187 15.5469 0.281233 15.3862 0.310764L15.3313 0.321233C15.2752 0.331701 15.2191 0.342873 15.1631 0.353889C15.0681 0.372638 14.9722 0.392013 14.8699 0.41381L14.7719 0.434903C14.7444 0.440997 14.7171 0.447794 14.6895 0.453888C14.6067 0.472403 14.5242 0.491621 14.4417 0.511231C14.3997 0.521231 14.3574 0.530215 14.3155 0.540449C14.31 0.541777 14.3018 0.54373 14.2982 0.544746C14.1726 0.575761 14.0471 0.608026 13.9224 0.641776C13.879 0.653495 13.8359 0.666151 13.7926 0.678182C13.6304 0.723103 13.4689 0.770368 13.3082 0.819665C13.2502 0.837477 13.1922 0.855211 13.1345 0.873492C12.9782 0.923179 12.8229 0.975288 12.6682 1.02912C12.6017 1.05216 12.535 1.0749 12.4689 1.09872C12.3167 1.15365 12.1654 1.21099 12.0147 1.26982C11.9336 1.30138 11.8528 1.33325 11.7722 1.36599C11.6324 1.42286 11.4933 1.4813 11.355 1.54145C11.2662 1.58005 11.1777 1.61966 11.0895 1.65958C10.9696 1.71403 10.8501 1.7695 10.7314 1.82653C10.63 1.87512 10.5291 1.92489 10.4284 1.97535C10.3322 2.02356 10.2366 2.07277 10.1414 2.1227C10.0268 2.1827 9.91272 2.24371 9.79921 2.30621C9.69679 2.36246 9.59499 2.4198 9.49374 2.47793C9.40109 2.53113 9.30882 2.58496 9.21695 2.63988C9.09265 2.71402 8.9693 2.7898 8.84664 2.86683C8.79328 2.90042 8.73977 2.93331 8.6868 2.96737C8.52789 3.06956 8.37086 3.17487 8.21501 3.28175C8.19016 3.29878 8.1647 3.31464 8.14001 3.33182C8.13149 3.33776 8.1236 3.3444 8.11516 3.35042C6.61768 4.39228 5.26785 5.65101 4.1249 7.09092C1.47595 10.4281 0.0758057 14.449 0.0758057 18.7187C0.0758057 18.9548 0.080415 19.1956 0.0899461 19.455C0.0906492 19.4755 0.0919773 19.4958 0.093618 19.5159C0.0968992 19.5935 0.101899 19.6709 0.106196 19.7484C0.109712 19.8143 0.112524 19.8803 0.116821 19.9459C0.122446 20.033 0.129633 20.1197 0.13643 20.2066C0.141664 20.2733 0.146195 20.3403 0.151977 20.4069C0.159633 20.4926 0.168773 20.5778 0.177523 20.6631C0.184476 20.7307 0.190648 20.7984 0.198382 20.8658C0.207914 20.9491 0.218851 21.032 0.229398 21.115C0.238148 21.1841 0.246194 21.2534 0.255804 21.3223C0.266975 21.4032 0.279631 21.4836 0.291975 21.5643C0.302678 21.6347 0.312678 21.7054 0.324084 21.7757C0.336974 21.8552 0.351584 21.9343 0.365568 22.0136C0.378146 22.0844 0.389943 22.1554 0.403224 22.2259C0.417833 22.3033 0.433926 22.3804 0.449473 22.4577C0.463926 22.5296 0.477832 22.6018 0.493223 22.6736C0.509316 22.7488 0.526972 22.8236 0.544003 22.8986C0.560566 22.9716 0.576503 23.0448 0.593925 23.1176C0.611581 23.1915 0.630799 23.2648 0.649471 23.3385C0.667986 23.4117 0.68572 23.4852 0.705251 23.5582C0.72447 23.6308 0.745329 23.7028 0.765407 23.7749C0.785875 23.8485 0.805719 23.9221 0.827125 23.9955C0.847828 24.0666 0.870093 24.1372 0.891812 24.208C0.914312 24.2817 0.936108 24.3554 0.959389 24.4288C0.981654 24.4987 1.0054 24.5682 1.02853 24.6378C1.0529 24.7113 1.07673 24.7852 1.10204 24.8584C1.12579 24.927 1.15087 24.9949 1.17532 25.0631C1.20173 25.1368 1.22759 25.2109 1.25493 25.2841C1.28001 25.3513 1.30657 25.418 1.33251 25.4848C1.36103 25.5584 1.38892 25.6323 1.41821 25.7055C1.44485 25.772 1.47298 25.8378 1.50055 25.9039C1.53087 25.9769 1.56048 26.05 1.59165 26.1225C1.61993 26.1881 1.64962 26.2531 1.67868 26.3185C1.71079 26.3909 1.74227 26.4634 1.77524 26.5352C1.80461 26.5991 1.83547 26.6623 1.86555 26.726C1.89993 26.7986 1.9336 26.8714 1.96891 26.9435C1.99985 27.0068 2.03235 27.0693 2.06399 27.1322C2.1 27.2037 2.13531 27.2755 2.17234 27.3465C2.20531 27.4098 2.23969 27.4725 2.27344 27.5355C2.31078 27.6054 2.34758 27.6757 2.38594 27.7451C2.42078 27.8083 2.45703 27.8706 2.49273 27.9334C2.53148 28.0017 2.56953 28.0704 2.60929 28.1383C2.64617 28.2015 2.68453 28.2639 2.72226 28.3267C2.76234 28.3933 2.80156 28.4604 2.84241 28.5265C2.88101 28.5891 2.92116 28.6508 2.96062 28.7131C3.0021 28.7786 3.04296 28.8445 3.0853 28.9095C3.12499 28.9704 3.16616 29.0305 3.20671 29.0911C3.25046 29.1564 3.29342 29.2222 3.33796 29.2871C3.37889 29.3466 3.42124 29.4053 3.46288 29.4645C3.5085 29.5293 3.5535 29.5944 3.59983 29.6587C3.64272 29.718 3.68701 29.7764 3.73061 29.8351C3.77748 29.8983 3.82365 29.962 3.87139 30.0246C3.91537 30.0824 3.96092 30.1392 4.0056 30.1966C4.05459 30.2593 4.10279 30.3225 4.15255 30.3847C4.19701 30.4403 4.24279 30.4948 4.28794 30.5498C4.33958 30.6128 4.39044 30.6762 4.44279 30.7385C4.48763 30.7917 4.53372 30.8441 4.57919 30.8968C4.63349 30.96 4.68716 31.0235 4.74247 31.0862C4.78481 31.1342 4.82856 31.1812 4.87145 31.2288C4.93137 31.2951 4.99067 31.362 5.05153 31.4276C5.08708 31.4658 5.12372 31.5033 5.1595 31.5413C5.22926 31.6152 5.29856 31.6894 5.36949 31.7624C5.38668 31.78 5.40434 31.797 5.4216 31.8146C5.62004 32.0169 5.82316 32.2158 6.03175 32.4104C6.03214 32.4108 6.03245 32.411 6.03285 32.4113C9.06398 35.2377 12.9349 36.9682 17.0365 37.3531C17.0802 38.1744 17.1446 38.6958 17.1566 38.7882C17.2279 39.3361 17.6593 39.7674 18.2072 39.8387C18.3495 39.8572 19.5081 40.0001 21.2155 40.0001C24.9242 40.0001 31.2216 39.3253 35.3114 35.2357C37.473 33.0741 38.9218 30.058 39.6174 26.2709C39.7389 25.6095 39.3013 24.9749 38.6399 24.8534C37.9775 24.7313 37.3437 25.1695 37.2223 25.831C36.6174 29.1232 35.3952 31.7081 33.5893 33.5138C29.4194 37.684 22.1091 37.6623 19.4889 37.505C19.3385 35.0611 19.3059 28.5418 22.7007 24.2835C22.7262 24.2503 22.7527 24.217 22.7793 24.1843ZM21.6089 21.8364C20.9127 20.854 20.7192 19.5646 20.9431 17.6681C21.4033 13.7718 16.7945 12.1067 15.0595 11.4799C14.917 11.4284 14.7921 11.3835 14.689 11.3438C12.9275 10.6691 11.5625 7.55646 10.5661 5.28391C10.4933 5.11797 10.422 4.9554 10.3522 4.7972C11.6165 4.02752 12.9689 3.43979 14.3779 3.043C14.3931 3.0387 14.4085 3.03433 14.4238 3.03011C14.5847 2.98526 14.7463 2.94308 14.9086 2.90323C14.9602 2.89058 15.012 2.87941 15.0638 2.8673C15.178 2.8405 15.2923 2.81417 15.4073 2.78995C15.4736 2.77581 15.5405 2.76277 15.6072 2.74964C15.7107 2.7291 15.8145 2.70925 15.9184 2.69058C15.9866 2.67839 16.0549 2.66683 16.1234 2.65542C16.4337 2.60418 16.7459 2.56129 17.0599 2.52793C17.0939 2.52441 17.1277 2.52035 17.1617 2.51722C17.3154 2.50191 17.4697 2.48886 17.6244 2.47793C17.6619 2.47535 17.6997 2.47293 17.7376 2.4705C17.8759 2.4616 18.0144 2.45465 18.1533 2.44933C18.1922 2.44777 18.2308 2.4459 18.2703 2.44472C18.4345 2.43949 18.5992 2.43668 18.7641 2.43629C18.7957 2.43629 18.828 2.43644 18.8605 2.43668C18.9505 2.43707 19.0405 2.43816 19.1304 2.44011C19.1484 2.44051 19.1664 2.44035 19.1843 2.44121C19.2012 2.44191 19.2181 2.4423 19.235 2.4423H19.2352C19.3404 2.44511 19.4453 2.44925 19.5503 2.4541C19.5757 2.45535 19.6014 2.45613 19.6266 2.45738C19.627 2.45738 19.6289 2.45754 19.6303 2.45754C19.7519 2.46371 19.8733 2.47144 19.9947 2.48027C20.0054 2.48113 20.0157 2.4816 20.0265 2.48246C21.7831 2.61503 23.5005 3.03026 25.1149 3.71018C23.3786 4.58736 22.1252 5.70508 20.7524 7.49084C20.523 7.78427 20.3064 8.0613 20.5305 10.9013C20.6741 12.7192 20.912 13.9796 21.2378 14.6476C21.6511 15.4947 22.2866 15.6214 22.6292 15.6214C22.6294 15.6214 22.6296 15.6214 22.6297 15.6214C22.8518 15.6214 23.0667 15.5693 23.2683 15.4668C23.7476 15.2232 24.1801 15.0997 24.5541 15.0997C25.7387 15.0997 26.5514 16.4569 27.4167 18.0966C27.4385 18.1378 27.4601 18.1788 27.4815 18.2193C25.4247 18.9374 23.4119 20.0315 21.7595 21.684C21.758 21.6855 21.7566 21.6869 21.7553 21.6883C21.706 21.7369 21.6573 21.7864 21.6089 21.8364ZM34.9779 16.9321C33.4971 16.9745 31.722 17.1339 29.8821 17.5413C29.7807 17.3584 29.6748 17.1582 29.57 16.9597C28.6673 15.2491 27.3031 12.6641 24.5537 12.6641C24.1227 12.6641 23.6779 12.7323 23.2233 12.8675C22.9946 11.6863 22.8436 9.56527 22.8737 8.7302C24.3333 6.88991 25.5718 6.01023 27.856 5.18961C31.8669 7.87825 34.4571 12.1666 34.9779 16.9321ZM7.08252 30.0303C7.0001 29.9453 6.91838 29.8596 6.83799 29.7729C6.83299 29.7675 6.82815 29.762 6.82315 29.7565C6.74268 29.6696 6.66331 29.5818 6.58487 29.4932C6.55854 29.4636 6.53276 29.4333 6.50667 29.4034C6.45003 29.3386 6.39378 29.2737 6.33839 29.2081C6.30816 29.1724 6.27862 29.1365 6.24862 29.1007C6.19784 29.0396 6.14745 28.9783 6.09761 28.9165C6.06714 28.8788 6.03699 28.8411 6.00699 28.8032C5.95832 28.7417 5.91003 28.6798 5.8623 28.6177C5.83332 28.58 5.80433 28.5425 5.77574 28.5046C5.72629 28.4392 5.67769 28.3733 5.62941 28.3072C5.60394 28.2724 5.57816 28.2379 5.55309 28.2029C5.49559 28.123 5.43926 28.0426 5.38332 27.9619C5.36848 27.9405 5.35309 27.9193 5.3384 27.8979C5.26817 27.7954 5.19926 27.6922 5.13137 27.5883C5.11372 27.5612 5.09676 27.5338 5.07942 27.5068C5.02989 27.4297 4.98051 27.3524 4.93231 27.2746C4.90833 27.2358 4.88497 27.1969 4.8613 27.158C4.82052 27.0909 4.77997 27.0237 4.74028 26.9562C4.71505 26.9134 4.69036 26.8703 4.66552 26.8273C4.62825 26.7626 4.59146 26.6978 4.55505 26.6326C4.53044 26.5884 4.50583 26.5441 4.48161 26.4997C4.4456 26.4337 4.41029 26.3673 4.37521 26.3009C4.35247 26.2577 4.32958 26.2145 4.30716 26.1711C4.27005 26.099 4.23373 26.0264 4.19771 25.9539C4.1788 25.9159 4.15959 25.878 4.14099 25.8399C4.09013 25.7355 4.04029 25.6304 3.9917 25.5248C3.98576 25.5119 3.9799 25.4988 3.97389 25.4859C3.92615 25.3813 3.87951 25.2763 3.83397 25.1707C3.81678 25.1308 3.80022 25.0905 3.78334 25.0503C3.7524 24.9769 3.72162 24.9034 3.69178 24.8295C3.67287 24.7829 3.65467 24.7362 3.63623 24.6894C3.60936 24.621 3.58264 24.5524 3.5567 24.4836C3.53834 24.4348 3.52014 24.386 3.50225 24.337C3.47725 24.2691 3.45295 24.201 3.42897 24.1326C3.41178 24.0836 3.3946 24.0346 3.3778 23.9854C3.35366 23.9146 3.33046 23.8435 3.30733 23.7724C3.29225 23.7259 3.27678 23.6793 3.26202 23.6326C3.23647 23.5511 3.21186 23.4692 3.18741 23.3873C3.17655 23.3507 3.16514 23.3143 3.15452 23.2778C3.12054 23.1606 3.08788 23.043 3.05663 22.925C3.04772 22.8912 3.03944 22.8571 3.03085 22.8233C3.00858 22.7372 2.98663 22.6511 2.96585 22.5646C2.95452 22.5177 2.94405 22.4706 2.93312 22.4236C2.91593 22.3493 2.89905 22.275 2.8828 22.2004C2.87187 22.1498 2.8614 22.099 2.85101 22.0484C2.83616 21.9765 2.82179 21.9046 2.80788 21.8325C2.79804 21.7809 2.78827 21.7293 2.77882 21.6775C2.76554 21.6046 2.75288 21.5315 2.74062 21.4583C2.7321 21.4079 2.72359 21.3576 2.71554 21.307C2.70312 21.2286 2.69171 21.1501 2.68038 21.0714C2.6739 21.0262 2.66703 20.9811 2.66093 20.9358C2.64695 20.8319 2.63414 20.7276 2.6221 20.6233C2.61976 20.6031 2.61703 20.583 2.61468 20.5628C2.60179 20.4469 2.59046 20.3306 2.58 20.2141C3.67733 19.7454 4.48029 19.263 5.022 18.7489C6.05292 17.7685 6.46886 17.6923 6.5719 17.6923C6.66581 17.6923 6.91346 17.8926 7.21057 18.4437C7.40525 18.8053 7.58439 19.1661 7.75767 19.5148C8.60985 21.2302 9.49093 23.004 11.739 23.37C12.766 23.5379 14.2024 24.4042 14.4458 25.2281C14.5717 25.6543 14.3257 26.1513 13.7146 26.7055C12.4103 27.8883 10.5817 28.6082 8.96844 29.2434C8.3036 29.5049 7.66361 29.7569 7.08252 30.0303ZM17.0075 34.9022C14.1446 34.5876 11.4197 33.5188 9.10914 31.808C9.35281 31.7094 9.60398 31.6101 9.86014 31.5093C11.6678 30.7978 13.7165 29.9912 15.3505 28.5093C17.0478 26.9701 17.0654 25.5002 16.7812 24.5381C16.1792 22.5006 13.7 21.2229 12.131 20.9665C11.159 20.8083 10.7336 20.0319 9.93858 18.4315C9.75655 18.0651 9.56827 17.6862 9.35437 17.2889C8.62782 15.9407 7.6915 15.257 6.57175 15.257C5.32762 15.257 4.24177 16.13 3.34452 16.9835C3.21913 17.1024 2.98155 17.2889 2.555 17.5247C2.87952 13.0412 5.017 9.00254 8.32266 6.23195C8.32704 6.24202 8.33141 6.25179 8.33579 6.26202C9.57007 9.07652 11.106 12.5792 13.8168 13.6177C13.9317 13.6618 14.0718 13.7126 14.232 13.7704C16.3394 14.5318 18.7317 15.6303 18.5248 17.3827C18.2916 19.3566 18.2843 21.8011 20.0542 23.7857C17.702 27.3626 17.0969 31.7854 17.0075 34.9022Z" fill="#5EFFA8"/>
<path d="M18.3636 39.8485C18.0519 39.8485 17.7404 39.7297 17.5026 39.4919C17.0271 39.0164 17.0271 38.2454 17.5026 37.7698L27.4833 27.7893C27.9592 27.3138 28.7299 27.3139 29.2054 27.7893C29.6809 28.2647 29.6809 29.0357 29.2054 29.5112L19.2247 39.4918C18.9869 39.7297 18.675 39.8485 18.3636 39.8485Z" fill="#5EFFA8"/>
</g>
<defs>
<clipPath id="clip0_75_3">
<rect width="40" height="40" fill="white"/>
</clipPath>
</defs>
</svg>
