<svg width="40" height="40" viewBox="0 0 40 40" fill="none" xmlns="http://www.w3.org/2000/svg">
<path d="M5.83331 33.3332C5.16665 33.3332 4.58331 33.0832 4.08331 32.5832C3.58331 32.0832 3.33331 31.4998 3.33331 30.8332V9.1665C3.33331 8.49984 3.58331 7.9165 4.08331 7.4165C4.58331 6.9165 5.16665 6.6665 5.83331 6.6665H34.1666C34.8333 6.6665 35.4166 6.9165 35.9166 7.4165C36.4166 7.9165 36.6666 8.49984 36.6666 9.1665V30.8332C36.6666 31.4998 36.4166 32.0832 35.9166 32.5832C35.4166 33.0832 34.8333 33.3332 34.1666 33.3332H5.83331ZM20 20.7498L5.83331 11.4582V30.8332H34.1666V11.4582L20 20.7498ZM20 18.2498L34 9.1665H6.04165L20 18.2498ZM5.83331 11.4582V9.1665V30.8332V11.4582Z" fill="#5EFFA8"/>
</svg>
