<svg width="292" height="166" viewBox="0 0 292 166" fill="none" xmlns="http://www.w3.org/2000/svg">
<rect width="292" height="166" rx="4" fill="#EFEFEF"/>
<path d="M46.56 80.36C46.56 81.1067 46.38 81.8067 46.02 82.46C45.6733 83.1133 45.12 83.64 44.36 84.04C43.6133 84.44 42.6667 84.64 41.52 84.64H39.18V90H36.38V76.04H41.52C42.6 76.04 43.52 76.2267 44.28 76.6C45.04 76.9733 45.6067 77.4867 45.98 78.14C46.3667 78.7933 46.56 79.5333 46.56 80.36ZM41.4 82.38C42.1733 82.38 42.7467 82.2067 43.12 81.86C43.4933 81.5 43.68 81 43.68 80.36C43.68 79 42.92 78.32 41.4 78.32H39.18V82.38H41.4ZM51.348 80.64C51.708 80.0533 52.1746 79.5933 52.748 79.26C53.3346 78.9267 54.0013 78.76 54.748 78.76V81.7H54.008C53.128 81.7 52.4613 81.9067 52.008 82.32C51.568 82.7333 51.348 83.4533 51.348 84.48V90H48.548V78.92H51.348V80.64ZM61.5539 90.18C60.4872 90.18 59.5272 89.9467 58.6739 89.48C57.8206 89 57.1472 88.3267 56.6539 87.46C56.1739 86.5933 55.9339 85.5933 55.9339 84.46C55.9339 83.3267 56.1806 82.3267 56.6739 81.46C57.1806 80.5933 57.8672 79.9267 58.7339 79.46C59.6006 78.98 60.5672 78.74 61.6339 78.74C62.7006 78.74 63.6672 78.98 64.5339 79.46C65.4006 79.9267 66.0806 80.5933 66.5739 81.46C67.0806 82.3267 67.3339 83.3267 67.3339 84.46C67.3339 85.5933 67.0739 86.5933 66.5539 87.46C66.0472 88.3267 65.3539 89 64.4739 89.48C63.6072 89.9467 62.6339 90.18 61.5539 90.18ZM61.5539 87.74C62.0606 87.74 62.5339 87.62 62.9739 87.38C63.4272 87.1267 63.7872 86.7533 64.0539 86.26C64.3206 85.7667 64.4539 85.1667 64.4539 84.46C64.4539 83.4067 64.1739 82.6 63.6139 82.04C63.0672 81.4667 62.3939 81.18 61.5939 81.18C60.7939 81.18 60.1206 81.4667 59.5739 82.04C59.0406 82.6 58.7739 83.4067 58.7739 84.46C58.7739 85.5133 59.0339 86.3267 59.5539 86.9C60.0872 87.46 60.7539 87.74 61.5539 87.74ZM68.6678 84.42C68.6678 83.3 68.8878 82.3067 69.3278 81.44C69.7811 80.5733 70.3945 79.9067 71.1678 79.44C71.9411 78.9733 72.8011 78.74 73.7478 78.74C74.4678 78.74 75.1545 78.9 75.8078 79.22C76.4611 79.5267 76.9811 79.94 77.3678 80.46V75.2H80.2078V90H77.3678V88.36C77.0211 88.9067 76.5345 89.3467 75.9078 89.68C75.2811 90.0133 74.5545 90.18 73.7278 90.18C72.7945 90.18 71.9411 89.94 71.1678 89.46C70.3945 88.98 69.7811 88.3067 69.3278 87.44C68.8878 86.56 68.6678 85.5533 68.6678 84.42ZM77.3878 84.46C77.3878 83.78 77.2545 83.2 76.9878 82.72C76.7211 82.2267 76.3611 81.8533 75.9078 81.6C75.4545 81.3333 74.9678 81.2 74.4478 81.2C73.9278 81.2 73.4478 81.3267 73.0078 81.58C72.5678 81.8333 72.2078 82.2067 71.9278 82.7C71.6611 83.18 71.5278 83.7533 71.5278 84.42C71.5278 85.0867 71.6611 85.6733 71.9278 86.18C72.2078 86.6733 72.5678 87.0533 73.0078 87.32C73.4611 87.5867 73.9411 87.72 74.4478 87.72C74.9678 87.72 75.4545 87.5933 75.9078 87.34C76.3611 87.0733 76.7211 86.7 76.9878 86.22C77.2545 85.7267 77.3878 85.14 77.3878 84.46ZM93.4025 78.92V90H90.5825V88.6C90.2225 89.08 89.7492 89.46 89.1625 89.74C88.5892 90.0067 87.9625 90.14 87.2825 90.14C86.4158 90.14 85.6492 89.96 84.9825 89.6C84.3158 89.2267 83.7892 88.6867 83.4025 87.98C83.0292 87.26 82.8425 86.4067 82.8425 85.42V78.92H85.6425V85.02C85.6425 85.9 85.8625 86.58 86.3025 87.06C86.7425 87.5267 87.3425 87.76 88.1025 87.76C88.8758 87.76 89.4825 87.5267 89.9225 87.06C90.3625 86.58 90.5825 85.9 90.5825 85.02V78.92H93.4025ZM99.4252 81.22V86.58C99.4252 86.9533 99.5118 87.2267 99.6852 87.4C99.8718 87.56 100.178 87.64 100.605 87.64H101.905V90H100.145C97.7852 90 96.6052 88.8533 96.6052 86.56V81.22H95.2852V78.92H96.6052V76.18H99.4252V78.92H101.905V81.22H99.4252ZM108.839 90.18C107.772 90.18 106.812 89.9467 105.959 89.48C105.106 89 104.432 88.3267 103.939 87.46C103.459 86.5933 103.219 85.5933 103.219 84.46C103.219 83.3267 103.466 82.3267 103.959 81.46C104.466 80.5933 105.152 79.9267 106.019 79.46C106.886 78.98 107.852 78.74 108.919 78.74C109.986 78.74 110.952 78.98 111.819 79.46C112.686 79.9267 113.366 80.5933 113.859 81.46C114.366 82.3267 114.619 83.3267 114.619 84.46C114.619 85.5933 114.359 86.5933 113.839 87.46C113.332 88.3267 112.639 89 111.759 89.48C110.892 89.9467 109.919 90.18 108.839 90.18ZM108.839 87.74C109.346 87.74 109.819 87.62 110.259 87.38C110.712 87.1267 111.072 86.7533 111.339 86.26C111.606 85.7667 111.739 85.1667 111.739 84.46C111.739 83.4067 111.459 82.6 110.899 82.04C110.352 81.4667 109.679 81.18 108.879 81.18C108.079 81.18 107.406 81.4667 106.859 82.04C106.326 82.6 106.059 83.4067 106.059 84.46C106.059 85.5133 106.319 86.3267 106.839 86.9C107.372 87.46 108.039 87.74 108.839 87.74ZM125.679 90.18C124.772 90.18 123.959 90.02 123.239 89.7C122.519 89.3667 121.945 88.92 121.519 88.36C121.105 87.8 120.879 87.18 120.839 86.5H123.659C123.712 86.9267 123.919 87.28 124.279 87.56C124.652 87.84 125.112 87.98 125.659 87.98C126.192 87.98 126.605 87.8733 126.899 87.66C127.205 87.4467 127.359 87.1733 127.359 86.84C127.359 86.48 127.172 86.2133 126.799 86.04C126.439 85.8533 125.859 85.6533 125.059 85.44C124.232 85.24 123.552 85.0333 123.019 84.82C122.499 84.6067 122.045 84.28 121.659 83.84C121.285 83.4 121.099 82.8067 121.099 82.06C121.099 81.4467 121.272 80.8867 121.619 80.38C121.979 79.8733 122.485 79.4733 123.139 79.18C123.805 78.8867 124.585 78.74 125.479 78.74C126.799 78.74 127.852 79.0733 128.639 79.74C129.425 80.3933 129.859 81.28 129.939 82.4H127.259C127.219 81.96 127.032 81.6133 126.699 81.36C126.379 81.0933 125.945 80.96 125.399 80.96C124.892 80.96 124.499 81.0533 124.219 81.24C123.952 81.4267 123.819 81.6867 123.819 82.02C123.819 82.3933 124.005 82.68 124.379 82.88C124.752 83.0667 125.332 83.26 126.119 83.46C126.919 83.66 127.579 83.8667 128.099 84.08C128.619 84.2933 129.065 84.6267 129.439 85.08C129.825 85.52 130.025 86.1067 130.039 86.84C130.039 87.48 129.859 88.0533 129.499 88.56C129.152 89.0667 128.645 89.4667 127.979 89.76C127.325 90.04 126.559 90.18 125.679 90.18ZM142.637 84.22C142.637 84.62 142.61 84.98 142.557 85.3H134.457C134.524 86.1 134.804 86.7267 135.297 87.18C135.79 87.6333 136.397 87.86 137.117 87.86C138.157 87.86 138.897 87.4133 139.337 86.52H142.357C142.037 87.5867 141.424 88.4667 140.517 89.16C139.61 89.84 138.497 90.18 137.177 90.18C136.11 90.18 135.15 89.9467 134.297 89.48C133.457 89 132.797 88.3267 132.317 87.46C131.85 86.5933 131.617 85.5933 131.617 84.46C131.617 83.3133 131.85 82.3067 132.317 81.44C132.784 80.5733 133.437 79.9067 134.277 79.44C135.117 78.9733 136.084 78.74 137.177 78.74C138.23 78.74 139.17 78.9667 139.997 79.42C140.837 79.8733 141.484 80.52 141.937 81.36C142.404 82.1867 142.637 83.14 142.637 84.22ZM139.737 83.42C139.724 82.7 139.464 82.1267 138.957 81.7C138.45 81.26 137.83 81.04 137.097 81.04C136.404 81.04 135.817 81.2533 135.337 81.68C134.87 82.0933 134.584 82.6733 134.477 83.42H139.737ZM158.441 78.76C159.801 78.76 160.894 79.18 161.721 80.02C162.561 80.8467 162.981 82.0067 162.981 83.5V90H160.181V83.88C160.181 83.0133 159.961 82.3533 159.521 81.9C159.081 81.4333 158.481 81.2 157.721 81.2C156.961 81.2 156.354 81.4333 155.901 81.9C155.461 82.3533 155.241 83.0133 155.241 83.88V90H152.441V83.88C152.441 83.0133 152.221 82.3533 151.781 81.9C151.341 81.4333 150.741 81.2 149.981 81.2C149.207 81.2 148.594 81.4333 148.141 81.9C147.701 82.3533 147.481 83.0133 147.481 83.88V90H144.681V78.92H147.481V80.26C147.841 79.7933 148.301 79.4267 148.861 79.16C149.434 78.8933 150.061 78.76 150.741 78.76C151.607 78.76 152.381 78.9467 153.061 79.32C153.741 79.68 154.267 80.2 154.641 80.88C155.001 80.24 155.521 79.7267 156.201 79.34C156.894 78.9533 157.641 78.76 158.441 78.76ZM171.823 77.6C171.33 77.6 170.917 77.4467 170.583 77.14C170.263 76.82 170.103 76.4267 170.103 75.96C170.103 75.4933 170.263 75.1067 170.583 74.8C170.917 74.48 171.33 74.32 171.823 74.32C172.317 74.32 172.723 74.48 173.043 74.8C173.377 75.1067 173.543 75.4933 173.543 75.96C173.543 76.4267 173.377 76.82 173.043 77.14C172.723 77.4467 172.317 77.6 171.823 77.6ZM173.203 78.92V90H170.403V78.92H173.203ZM189.73 78.76C191.09 78.76 192.183 79.18 193.01 80.02C193.85 80.8467 194.27 82.0067 194.27 83.5V90H191.47V83.88C191.47 83.0133 191.25 82.3533 190.81 81.9C190.37 81.4333 189.77 81.2 189.01 81.2C188.25 81.2 187.643 81.4333 187.19 81.9C186.75 82.3533 186.53 83.0133 186.53 83.88V90H183.73V83.88C183.73 83.0133 183.51 82.3533 183.07 81.9C182.63 81.4333 182.03 81.2 181.27 81.2C180.497 81.2 179.883 81.4333 179.43 81.9C178.99 82.3533 178.77 83.0133 178.77 83.88V90H175.97V78.92H178.77V80.26C179.13 79.7933 179.59 79.4267 180.15 79.16C180.723 78.8933 181.35 78.76 182.03 78.76C182.897 78.76 183.67 78.9467 184.35 79.32C185.03 79.68 185.557 80.2 185.93 80.88C186.29 80.24 186.81 79.7267 187.49 79.34C188.183 78.9533 188.93 78.76 189.73 78.76ZM196.207 84.42C196.207 83.3 196.427 82.3067 196.867 81.44C197.32 80.5733 197.927 79.9067 198.687 79.44C199.46 78.9733 200.32 78.74 201.267 78.74C202.094 78.74 202.814 78.9067 203.427 79.24C204.054 79.5733 204.554 79.9933 204.927 80.5V78.92H207.747V90H204.927V88.38C204.567 88.9 204.067 89.3333 203.427 89.68C202.8 90.0133 202.074 90.18 201.247 90.18C200.314 90.18 199.46 89.94 198.687 89.46C197.927 88.98 197.32 88.3067 196.867 87.44C196.427 86.56 196.207 85.5533 196.207 84.42ZM204.927 84.46C204.927 83.78 204.794 83.2 204.527 82.72C204.26 82.2267 203.9 81.8533 203.447 81.6C202.994 81.3333 202.507 81.2 201.987 81.2C201.467 81.2 200.987 81.3267 200.547 81.58C200.107 81.8333 199.747 82.2067 199.467 82.7C199.2 83.18 199.067 83.7533 199.067 84.42C199.067 85.0867 199.2 85.6733 199.467 86.18C199.747 86.6733 200.107 87.0533 200.547 87.32C201 87.5867 201.48 87.72 201.987 87.72C202.507 87.72 202.994 87.5933 203.447 87.34C203.9 87.0733 204.26 86.7 204.527 86.22C204.794 85.7267 204.927 85.14 204.927 84.46ZM214.822 78.74C215.648 78.74 216.375 78.9067 217.002 79.24C217.628 79.56 218.122 79.98 218.482 80.5V78.92H221.302V90.08C221.302 91.1067 221.095 92.02 220.682 92.82C220.268 93.6333 219.648 94.2733 218.822 94.74C217.995 95.22 216.995 95.46 215.822 95.46C214.248 95.46 212.955 95.0933 211.942 94.36C210.942 93.6267 210.375 92.6267 210.242 91.36H213.022C213.168 91.8667 213.482 92.2667 213.962 92.56C214.455 92.8667 215.048 93.02 215.742 93.02C216.555 93.02 217.215 92.7733 217.722 92.28C218.228 91.8 218.482 91.0667 218.482 90.08V88.36C218.122 88.88 217.622 89.3133 216.982 89.66C216.355 90.0067 215.635 90.18 214.822 90.18C213.888 90.18 213.035 89.94 212.262 89.46C211.488 88.98 210.875 88.3067 210.422 87.44C209.982 86.56 209.762 85.5533 209.762 84.42C209.762 83.3 209.982 82.3067 210.422 81.44C210.875 80.5733 211.482 79.9067 212.242 79.44C213.015 78.9733 213.875 78.74 214.822 78.74ZM218.482 84.46C218.482 83.78 218.348 83.2 218.082 82.72C217.815 82.2267 217.455 81.8533 217.002 81.6C216.548 81.3333 216.062 81.2 215.542 81.2C215.022 81.2 214.542 81.3267 214.102 81.58C213.662 81.8333 213.302 82.2067 213.022 82.7C212.755 83.18 212.622 83.7533 212.622 84.42C212.622 85.0867 212.755 85.6733 213.022 86.18C213.302 86.6733 213.662 87.0533 214.102 87.32C214.555 87.5867 215.035 87.72 215.542 87.72C216.062 87.72 216.548 87.5933 217.002 87.34C217.455 87.0733 217.815 86.7 218.082 86.22C218.348 85.7267 218.482 85.14 218.482 84.46ZM234.336 84.22C234.336 84.62 234.31 84.98 234.256 85.3H226.156C226.223 86.1 226.503 86.7267 226.996 87.18C227.49 87.6333 228.096 87.86 228.816 87.86C229.856 87.86 230.596 87.4133 231.036 86.52H234.056C233.736 87.5867 233.123 88.4667 232.216 89.16C231.31 89.84 230.196 90.18 228.876 90.18C227.81 90.18 226.85 89.9467 225.996 89.48C225.156 89 224.496 88.3267 224.016 87.46C223.55 86.5933 223.316 85.5933 223.316 84.46C223.316 83.3133 223.55 82.3067 224.016 81.44C224.483 80.5733 225.136 79.9067 225.976 79.44C226.816 78.9733 227.783 78.74 228.876 78.74C229.93 78.74 230.87 78.9667 231.696 79.42C232.536 79.8733 233.183 80.52 233.636 81.36C234.103 82.1867 234.336 83.14 234.336 84.22ZM231.436 83.42C231.423 82.7 231.163 82.1267 230.656 81.7C230.15 81.26 229.53 81.04 228.796 81.04C228.103 81.04 227.516 81.2533 227.036 81.68C226.57 82.0933 226.283 82.6733 226.176 83.42H231.436ZM250.14 78.76C251.5 78.76 252.593 79.18 253.42 80.02C254.26 80.8467 254.68 82.0067 254.68 83.5V90H251.88V83.88C251.88 83.0133 251.66 82.3533 251.22 81.9C250.78 81.4333 250.18 81.2 249.42 81.2C248.66 81.2 248.053 81.4333 247.6 81.9C247.16 82.3533 246.94 83.0133 246.94 83.88V90H244.14V83.88C244.14 83.0133 243.92 82.3533 243.48 81.9C243.04 81.4333 242.44 81.2 241.68 81.2C240.907 81.2 240.293 81.4333 239.84 81.9C239.4 82.3533 239.18 83.0133 239.18 83.88V90H236.38V78.92H239.18V80.26C239.54 79.7933 240 79.4267 240.56 79.16C241.133 78.8933 241.76 78.76 242.44 78.76C243.307 78.76 244.08 78.9467 244.76 79.32C245.44 79.68 245.967 80.2 246.34 80.88C246.7 80.24 247.22 79.7267 247.9 79.34C248.593 78.9533 249.34 78.76 250.14 78.76Z" fill="#B1B1B1"/>
</svg>
