<svg width="150" height="18" viewBox="0 0 150 18" fill="none" xmlns="http://www.w3.org/2000/svg">
<path d="M14.5403 2.41795L9.19213 17H5.64063L0.29248 2.41795H3.42616L7.43727 14.0126L11.4275 2.41795H14.5403Z" fill="black"/>
<path d="M17.7771 4.04746C17.2618 4.04746 16.83 3.8873 16.4818 3.56697C16.1476 3.23271 15.9805 2.82185 15.9805 2.33439C15.9805 1.84692 16.1476 1.44303 16.4818 1.1227C16.83 0.788437 17.2618 0.621307 17.7771 0.621307C18.2924 0.621307 18.7172 0.788437 19.0515 1.1227C19.3997 1.44303 19.5737 1.84692 19.5737 2.33439C19.5737 2.82185 19.3997 3.23271 19.0515 3.56697C18.7172 3.8873 18.2924 4.04746 17.7771 4.04746ZM19.2186 5.42628V17H16.2938V5.42628H19.2186Z" fill="black"/>
<path d="M25.033 7.22292C25.4091 6.61012 25.8965 6.12962 26.4954 5.78143C27.1082 5.43325 27.8046 5.25915 28.5845 5.25915V8.33016H27.8116C26.8924 8.33016 26.196 8.54603 25.7225 8.97779C25.2628 9.40954 25.033 10.1616 25.033 11.234V17H22.1083V5.42628H25.033V7.22292Z" fill="black"/>
<path d="M33.9598 7.82877V13.4276C33.9598 13.8176 34.0503 14.1031 34.2314 14.2841C34.4264 14.4513 34.7467 14.5348 35.1924 14.5348H36.5503V17H34.7119C32.2467 17 31.0141 15.8022 31.0141 13.4067V7.82877H29.6353V5.42628H31.0141V2.56419H33.9598V5.42628H36.5503V7.82877H33.9598Z" fill="black"/>
<path d="M49.58 5.42628V17H46.6344V15.5376C46.2583 16.039 45.7639 16.4359 45.1511 16.7284C44.5522 17.007 43.8976 17.1462 43.1873 17.1462C42.282 17.1462 41.4812 16.9582 40.7848 16.5822C40.0885 16.1922 39.5383 15.6281 39.1344 14.89C38.7445 14.1379 38.5495 13.2466 38.5495 12.2159V5.42628H41.4742V11.7981C41.4742 12.7173 41.7041 13.4276 42.1637 13.929C42.6233 14.4165 43.25 14.6602 44.0439 14.6602C44.8517 14.6602 45.4854 14.4165 45.945 13.929C46.4046 13.4276 46.6344 12.7173 46.6344 11.7981V5.42628H49.58Z" fill="black"/>
<path d="M51.7137 11.1714C51.7137 10.0015 51.9435 8.96386 52.4031 8.05857C52.8766 7.15329 53.5103 6.45691 54.3042 5.96945C55.112 5.48199 56.0103 5.23826 56.9992 5.23826C57.8627 5.23826 58.6148 5.41235 59.2554 5.76054C59.91 6.10873 60.4323 6.54744 60.8223 7.07669V5.42628H63.7679V17H60.8223V15.3078C60.4462 15.851 59.9239 16.3036 59.2554 16.6657C58.6008 17.0139 57.8418 17.188 56.9783 17.188C56.0034 17.188 55.112 16.9373 54.3042 16.4359C53.5103 15.9346 52.8766 15.2312 52.4031 14.3259C51.9435 13.4067 51.7137 12.3552 51.7137 11.1714ZM60.8223 11.2131C60.8223 10.5028 60.683 9.897 60.4044 9.39561C60.1259 8.88029 59.7499 8.49032 59.2763 8.2257C58.8028 7.94715 58.2944 7.80788 57.7513 7.80788C57.2081 7.80788 56.7067 7.94019 56.2471 8.20481C55.7875 8.46943 55.4114 8.8594 55.119 9.37472C54.8404 9.87611 54.7011 10.475 54.7011 11.1714C54.7011 11.8677 54.8404 12.4805 55.119 13.0098C55.4114 13.5251 55.7875 13.922 56.2471 14.2006C56.7206 14.4791 57.222 14.6184 57.7513 14.6184C58.2944 14.6184 58.8028 14.4861 59.2763 14.2215C59.7499 13.9429 60.1259 13.553 60.4044 13.0516C60.683 12.5363 60.8223 11.9234 60.8223 11.2131Z" fill="black"/>
<path d="M69.5492 1.54052V17H66.6245V1.54052H69.5492Z" fill="black"/>
<path d="M93.3151 2.41795V17H90.3903V7.5154L86.4837 17H84.2692L80.3417 7.5154V17H77.4169V2.41795H80.7386L85.3764 13.2605L90.0143 2.41795H93.3151Z" fill="black"/>
<path d="M95.4546 11.1714C95.4546 10.0015 95.6844 8.96386 96.1441 8.05857C96.6176 7.15329 97.2513 6.45691 98.0452 5.96945C98.8529 5.48199 99.7513 5.23826 100.74 5.23826C101.604 5.23826 102.356 5.41235 102.996 5.76054C103.651 6.10873 104.173 6.54744 104.563 7.07669V5.42628H107.509V17H104.563V15.3078C104.187 15.851 103.665 16.3036 102.996 16.6657C102.342 17.0139 101.583 17.188 100.719 17.188C99.7443 17.188 98.8529 16.9373 98.0452 16.4359C97.2513 15.9346 96.6176 15.2312 96.1441 14.3259C95.6844 13.4067 95.4546 12.3552 95.4546 11.1714ZM104.563 11.2131C104.563 10.5028 104.424 9.897 104.145 9.39561C103.867 8.88029 103.491 8.49032 103.017 8.2257C102.544 7.94715 102.035 7.80788 101.492 7.80788C100.949 7.80788 100.448 7.94019 99.988 8.20481C99.5284 8.46943 99.1524 8.8594 98.8599 9.37472C98.5814 9.87611 98.4421 10.475 98.4421 11.1714C98.4421 11.8677 98.5814 12.4805 98.8599 13.0098C99.1524 13.5251 99.5284 13.922 99.988 14.2006C100.462 14.4791 100.963 14.6184 101.492 14.6184C102.035 14.6184 102.544 14.4861 103.017 14.2215C103.491 13.9429 103.867 13.553 104.145 13.0516C104.424 12.5363 104.563 11.9234 104.563 11.2131Z" fill="black"/>
<path d="M113.29 7.22292C113.666 6.61012 114.154 6.12962 114.753 5.78143C115.365 5.43325 116.062 5.25915 116.842 5.25915V8.33016H116.069C115.149 8.33016 114.453 8.54603 113.98 8.97779C113.52 9.40954 113.29 10.1616 113.29 11.234V17H110.365V5.42628H113.29V7.22292Z" fill="black"/>
<path d="M125.664 17L121.736 12.0697V17H118.812V1.54052H121.736V10.3357L125.622 5.42628H129.424L124.327 11.234L129.466 17H125.664Z" fill="black"/>
<path d="M141.771 10.9624C141.771 11.3803 141.743 11.7563 141.687 12.0906H133.226C133.296 12.9262 133.588 13.5808 134.104 14.0543C134.619 14.5279 135.253 14.7646 136.005 14.7646C137.091 14.7646 137.864 14.2981 138.324 13.3649H141.478C141.144 14.4791 140.503 15.3983 139.556 16.1226C138.609 16.8329 137.446 17.188 136.067 17.188C134.953 17.188 133.95 16.9443 133.059 16.4568C132.182 15.9554 131.492 15.2521 130.991 14.3468C130.503 13.4415 130.26 12.397 130.26 11.2131C130.26 10.0154 130.503 8.96386 130.991 8.05857C131.478 7.15329 132.161 6.45691 133.038 5.96945C133.916 5.48199 134.925 5.23826 136.067 5.23826C137.168 5.23826 138.15 5.47503 139.013 5.94856C139.891 6.4221 140.566 7.09758 141.04 7.97501C141.527 8.83851 141.771 9.83432 141.771 10.9624ZM138.742 10.1268C138.728 9.37472 138.456 8.77584 137.927 8.33016C137.398 7.87055 136.75 7.64075 135.984 7.64075C135.26 7.64075 134.647 7.86359 134.145 8.30927C133.658 8.74102 133.359 9.34686 133.247 10.1268H138.742Z" fill="black"/>
<path d="M147.311 7.82877V13.4276C147.311 13.8176 147.401 14.1031 147.582 14.2841C147.777 14.4513 148.098 14.5348 148.543 14.5348H149.901V17H148.063C145.598 17 144.365 15.8022 144.365 13.4067V7.82877H142.986V5.42628H144.365V2.56419H147.311V5.42628H149.901V7.82877H147.311Z" fill="black"/>
</svg>
